<?xml version="1.0" standalone="no"?>
<!DOCTYPE svg PUBLIC "-//W3C//DTD SVG 20010904//EN"
 "http://www.w3.org/TR/2001/REC-SVG-20010904/DTD/svg10.dtd">
<svg version="1.0" xmlns="http://www.w3.org/2000/svg"
 width="700.000000pt" height="700.000000pt" viewBox="0 0 700.000000 700.000000"
 preserveAspectRatio="xMidYMid meet">
<metadata>
Created by potrace 1.14, written by Peter Selinger 2001-2017
</metadata>
<g transform="translate(0.000000,700.000000) scale(0.100000,-0.100000)"
fill="#000000" stroke="none">
<path d="M5537 6424 c-1 -1 -33 -4 -72 -7 -84 -7 -101 -11 -185 -38 -81 -26
-168 -69 -240 -120 -30 -21 -639 -623 -1354 -1336 -1112 -1112 -1302 -1306
-1325 -1353 l-26 -55 0 -480 0 -480 24 -49 c28 -60 81 -113 147 -146 l49 -25
480 0 480 0 55 26 c47 23 241 213 1353 1325 713 715 1305 1310 1314 1324 9 14
20 27 23 30 28 22 118 214 136 290 4 19 8 37 9 40 9 39 17 126 17 188 0 171
-52 335 -154 486 -105 154 -260 271 -445 334 -72 25 -272 57 -286 46z m136
-613 c136 -66 199 -224 147 -366 -22 -58 -63 -100 -1259 -1295 l-1236 -1236
-190 2 c-104 1 -197 2 -205 3 -13 1 -15 30 -14 206 l1 205 1234 1234 c1141
1140 1238 1235 1289 1255 72 27 166 24 233 -8z"/>
<path d="M1737 5834 c-1 -1 -36 -4 -78 -7 -41 -3 -87 -11 -102 -16 -15 -6 -27
-9 -27 -6 0 6 -123 -41 -173 -66 -251 -127 -430 -376 -474 -662 -9 -58 -9
-3380 0 -3442 34 -232 154 -437 343 -585 61 -49 186 -111 269 -135 139 -41
147 -41 1895 -39 l1685 1 97 26 c285 75 508 278 607 549 54 147 54 154 55 983
1 424 -2 791 -6 817 -14 96 -78 181 -166 221 -66 30 -179 30 -242 -1 -60 -29
-113 -82 -142 -140 l-23 -47 -2 -775 c-2 -510 -6 -793 -13 -826 -20 -97 -108
-189 -203 -212 -57 -15 -3313 -18 -3363 -3 -104 30 -187 116 -209 220 -12 55
-8 3304 4 3349 21 78 87 151 171 191 31 14 121 17 840 21 l805 5 46 23 c59 29
112 82 141 141 18 36 23 63 23 121 -1 112 -39 186 -130 247 -68 46 -68 46
-868 47 -417 1 -759 0 -760 0z"/>
</g>
</svg>
